<svg width="60pt" height="11pt" viewBox="0 0 60 11" xmlns="http://www.w3.org/2000/svg"><g id="fontsvg1676734707548" stroke-linecap="round" fill-rule="evenodd" fill="#ffffff"><path d="M 5.719 7.787 L 5.719 0.117 L 7.289 0.117 L 7.289 7.758 A 13.831 13.831 0 0 0 7.292 8.041 Q 7.303 8.604 7.365 8.748 A 1.568 1.568 0 0 0 7.523 9.031 A 1.444 1.444 0 0 0 7.55 9.067 Q 7.645 9.194 7.92 9.209 A 1.421 1.421 0 0 0 7.998 9.211 A 0.909 0.909 0 0 0 8.178 9.194 Q 8.38 9.153 8.484 9.012 A 0.901 0.901 0 0 0 8.622 8.729 A 1.224 1.224 0 0 0 8.663 8.517 A 4.624 4.624 0 0 0 8.681 8.294 Q 8.688 8.178 8.692 8.044 A 11.066 11.066 0 0 0 8.695 7.758 L 8.695 0.117 L 10.266 0.117 L 10.266 7.787 A 5.992 5.992 0 0 1 10.223 8.529 Q 10.122 9.337 9.781 9.81 A 1.701 1.701 0 0 1 9.727 9.882 A 1.666 1.666 0 0 1 8.942 10.415 Q 8.535 10.553 7.995 10.553 Q 7.203 10.553 6.698 10.255 A 1.593 1.593 0 0 1 6.261 9.879 A 2.081 2.081 0 0 1 5.925 9.254 Q 5.732 8.699 5.72 7.895 A 7.198 7.198 0 0 1 5.719 7.787 Z M 18.826 7.588 L 18.826 3.094 A 6.737 6.737 0 0 1 18.89 2.124 Q 19.104 0.659 20.033 0.217 A 2.077 2.077 0 0 1 20.525 0.059 Q 20.753 0.014 21.014 0.007 A 3.667 3.667 0 0 1 21.111 0.006 A 2.428 2.428 0 0 1 22.075 0.183 Q 23.119 0.631 23.262 2.214 A 5.922 5.922 0 0 1 23.285 2.748 L 23.285 4.166 L 21.768 4.166 L 21.768 2.848 A 7.546 7.546 0 0 0 21.759 2.478 Q 21.742 2.123 21.688 1.89 A 1.307 1.307 0 0 0 21.633 1.708 A 0.567 0.567 0 0 0 21.51 1.513 Q 21.402 1.405 21.235 1.376 A 0.761 0.761 0 0 0 21.105 1.365 A 0.65 0.65 0 0 0 20.876 1.404 Q 20.702 1.469 20.601 1.646 A 0.769 0.769 0 0 0 20.561 1.729 A 1.492 1.492 0 0 0 20.484 1.978 Q 20.408 2.315 20.408 2.842 L 20.408 7.658 Q 20.408 8.49 20.555 8.848 Q 20.684 9.162 20.999 9.2 A 0.751 0.751 0 0 0 21.088 9.205 A 0.631 0.631 0 0 0 21.311 9.168 Q 21.48 9.104 21.578 8.932 A 0.758 0.758 0 0 0 21.621 8.842 A 1.458 1.458 0 0 0 21.691 8.602 Q 21.747 8.343 21.762 7.953 A 8.062 8.062 0 0 0 21.768 7.641 L 21.768 6.164 L 23.309 6.164 L 23.309 7.623 A 6.694 6.694 0 0 1 23.266 8.402 Q 23.159 9.319 22.775 9.835 Q 22.242 10.553 21.1 10.553 Q 19.957 10.553 19.392 9.788 Q 18.97 9.218 18.863 8.276 A 6.089 6.089 0 0 1 18.826 7.588 Z M 24.381 7.535 L 24.381 6.615 L 25.869 6.615 L 25.869 7.652 A 8.027 8.027 0 0 0 25.878 8.051 Q 25.906 8.601 26.016 8.862 A 0.589 0.589 0 0 0 26.153 9.067 Q 26.266 9.173 26.435 9.201 A 0.8 0.8 0 0 0 26.566 9.211 A 0.874 0.874 0 0 0 26.762 9.191 Q 27.006 9.135 27.103 8.924 Q 27.21 8.689 27.23 8.212 A 5.485 5.485 0 0 0 27.234 7.986 A 3.046 3.046 0 0 0 27.185 7.422 A 2.257 2.257 0 0 0 27 6.853 Q 26.807 6.455 26.429 6.028 A 5.92 5.92 0 0 0 26.256 5.842 L 25.494 5.057 A 5.166 5.166 0 0 1 24.969 4.418 A 4.157 4.157 0 0 1 24.665 3.902 A 2.807 2.807 0 0 1 24.411 3.082 A 3.665 3.665 0 0 1 24.369 2.52 Q 24.369 1.275 24.837 0.653 A 1.599 1.599 0 0 1 24.861 0.621 A 1.465 1.465 0 0 1 25.491 0.17 Q 25.743 0.072 26.059 0.03 A 3.817 3.817 0 0 1 26.555 0 Q 27.756 0 28.181 0.724 A 2.578 2.578 0 0 1 28.431 1.328 Q 28.605 1.945 28.605 2.836 L 28.605 3.475 L 27.158 3.475 L 27.158 2.736 Q 27.158 2.154 27.08 1.827 A 1.223 1.223 0 0 0 27.029 1.661 Q 26.921 1.388 26.646 1.344 A 0.709 0.709 0 0 0 26.534 1.336 Q 26.168 1.336 26.007 1.582 A 0.821 0.821 0 0 0 25.912 1.791 Q 25.85 1.991 25.846 2.28 A 2.914 2.914 0 0 0 25.846 2.32 A 2.403 2.403 0 0 0 25.864 2.629 Q 25.884 2.783 25.926 2.911 A 1.08 1.08 0 0 0 26.01 3.106 A 2.121 2.121 0 0 0 26.13 3.294 Q 26.301 3.534 26.602 3.856 L 27.451 4.775 Q 28.09 5.467 28.415 6.176 A 3.621 3.621 0 0 1 28.737 7.56 A 4.224 4.224 0 0 1 28.74 7.723 A 6.874 6.874 0 0 1 28.702 8.477 Q 28.616 9.249 28.34 9.726 A 1.821 1.821 0 0 1 28.254 9.861 A 1.493 1.493 0 0 1 27.518 10.406 Q 27.255 10.501 26.927 10.535 A 3.695 3.695 0 0 1 26.552 10.553 Q 25.336 10.553 24.858 9.782 Q 24.39 9.027 24.381 7.593 A 9 9 0 0 1 24.381 7.535 Z M 29.684 7.535 L 29.684 6.615 L 31.172 6.615 L 31.172 7.652 A 8.027 8.027 0 0 0 31.181 8.051 Q 31.208 8.601 31.318 8.862 A 0.589 0.589 0 0 0 31.456 9.067 Q 31.568 9.173 31.738 9.201 A 0.8 0.8 0 0 0 31.869 9.211 A 0.874 0.874 0 0 0 32.065 9.191 Q 32.308 9.135 32.405 8.924 Q 32.513 8.689 32.533 8.212 A 5.485 5.485 0 0 0 32.537 7.986 A 3.046 3.046 0 0 0 32.487 7.422 A 2.257 2.257 0 0 0 32.303 6.853 Q 32.11 6.455 31.732 6.028 A 5.92 5.92 0 0 0 31.559 5.842 L 30.797 5.057 A 5.166 5.166 0 0 1 30.272 4.418 A 4.157 4.157 0 0 1 29.968 3.902 A 2.807 2.807 0 0 1 29.713 3.082 A 3.665 3.665 0 0 1 29.672 2.52 Q 29.672 1.275 30.14 0.653 A 1.599 1.599 0 0 1 30.164 0.621 A 1.465 1.465 0 0 1 30.794 0.17 Q 31.045 0.072 31.361 0.03 A 3.817 3.817 0 0 1 31.857 0 Q 33.059 0 33.483 0.724 A 2.578 2.578 0 0 1 33.733 1.328 Q 33.908 1.945 33.908 2.836 L 33.908 3.475 L 32.461 3.475 L 32.461 2.736 Q 32.461 2.154 32.383 1.827 A 1.223 1.223 0 0 0 32.332 1.661 Q 32.224 1.388 31.949 1.344 A 0.709 0.709 0 0 0 31.837 1.336 Q 31.471 1.336 31.31 1.582 A 0.821 0.821 0 0 0 31.215 1.791 Q 31.153 1.991 31.149 2.28 A 2.914 2.914 0 0 0 31.148 2.32 A 2.403 2.403 0 0 0 31.167 2.629 Q 31.187 2.783 31.229 2.911 A 1.08 1.08 0 0 0 31.312 3.106 A 2.121 2.121 0 0 0 31.433 3.294 Q 31.604 3.534 31.904 3.856 L 32.754 4.775 Q 33.393 5.467 33.718 6.176 A 3.621 3.621 0 0 1 34.04 7.56 A 4.224 4.224 0 0 1 34.043 7.723 A 6.874 6.874 0 0 1 34.004 8.477 Q 33.919 9.249 33.643 9.726 A 1.821 1.821 0 0 1 33.557 9.861 A 1.493 1.493 0 0 1 32.82 10.406 Q 32.557 10.501 32.229 10.535 A 3.695 3.695 0 0 1 31.854 10.553 Q 30.639 10.553 30.161 9.782 Q 29.693 9.027 29.684 7.593 A 9 9 0 0 1 29.684 7.535 Z M 37.137 7.535 L 37.137 6.615 L 38.625 6.615 L 38.625 7.652 A 8.027 8.027 0 0 0 38.634 8.051 Q 38.662 8.601 38.771 8.862 A 0.589 0.589 0 0 0 38.909 9.067 Q 39.022 9.173 39.191 9.201 A 0.8 0.8 0 0 0 39.322 9.211 A 0.874 0.874 0 0 0 39.518 9.191 Q 39.762 9.135 39.858 8.924 Q 39.966 8.689 39.986 8.212 A 5.485 5.485 0 0 0 39.99 7.986 A 3.046 3.046 0 0 0 39.94 7.422 A 2.257 2.257 0 0 0 39.756 6.853 Q 39.563 6.455 39.185 6.028 A 5.92 5.92 0 0 0 39.012 5.842 L 38.25 5.057 A 5.166 5.166 0 0 1 37.725 4.418 A 4.157 4.157 0 0 1 37.421 3.902 A 2.807 2.807 0 0 1 37.167 3.082 A 3.665 3.665 0 0 1 37.125 2.52 Q 37.125 1.275 37.593 0.653 A 1.599 1.599 0 0 1 37.617 0.621 A 1.465 1.465 0 0 1 38.247 0.17 Q 38.499 0.072 38.815 0.03 A 3.817 3.817 0 0 1 39.311 0 Q 40.512 0 40.937 0.724 A 2.578 2.578 0 0 1 41.186 1.328 Q 41.361 1.945 41.361 2.836 L 41.361 3.475 L 39.914 3.475 L 39.914 2.736 Q 39.914 2.154 39.836 1.827 A 1.223 1.223 0 0 0 39.785 1.661 Q 39.677 1.388 39.402 1.344 A 0.709 0.709 0 0 0 39.29 1.336 Q 38.924 1.336 38.763 1.582 A 0.821 0.821 0 0 0 38.668 1.791 Q 38.606 1.991 38.602 2.28 A 2.914 2.914 0 0 0 38.602 2.32 A 2.403 2.403 0 0 0 38.62 2.629 Q 38.64 2.783 38.682 2.911 A 1.08 1.08 0 0 0 38.766 3.106 A 2.121 2.121 0 0 0 38.886 3.294 Q 39.057 3.534 39.357 3.856 L 40.207 4.775 Q 40.846 5.467 41.171 6.176 A 3.621 3.621 0 0 1 41.493 7.56 A 4.224 4.224 0 0 1 41.496 7.723 A 6.874 6.874 0 0 1 41.458 8.477 Q 41.372 9.249 41.096 9.726 A 1.821 1.821 0 0 1 41.01 9.861 A 1.493 1.493 0 0 1 40.273 10.406 Q 40.011 10.501 39.683 10.535 A 3.695 3.695 0 0 1 39.308 10.553 Q 38.092 10.553 37.614 9.782 Q 37.146 9.027 37.137 7.593 A 9 9 0 0 1 37.137 7.535 Z M 59.801 10.436 L 56.273 10.436 L 56.273 0.123 L 59.73 0.123 L 59.73 1.477 L 57.844 1.477 L 57.844 4.477 L 59.637 4.477 L 59.637 5.801 L 57.844 5.801 L 57.844 9.082 L 59.801 9.082 L 59.801 10.436 Z M 14.332 10.436 L 12.762 10.436 L 12.762 6.316 L 11.033 0.123 L 12.533 0.123 L 13.553 3.979 L 13.576 3.979 L 14.484 0.123 L 15.979 0.123 L 14.332 6.316 L 14.332 10.436 Z M 49.342 10.436 L 47.771 10.436 L 47.771 6.316 L 46.043 0.123 L 47.543 0.123 L 48.563 3.979 L 48.586 3.979 L 49.494 0.123 L 50.988 0.123 L 49.342 6.316 L 49.342 10.436 Z M 4.354 2.455 L 4.354 2.772 Q 4.354 4.132 3.751 4.634 A 1.183 1.183 0 0 1 3.451 4.816 A 1.361 1.361 0 0 1 4.25 5.551 Q 4.517 6.094 4.549 7.001 A 7.156 7.156 0 0 1 4.553 7.248 L 4.553 7.512 A 7.316 7.316 0 0 1 4.51 8.276 Q 4.419 9.078 4.138 9.561 A 1.744 1.744 0 0 1 4.011 9.75 A 1.642 1.642 0 0 1 3.209 10.302 Q 2.928 10.396 2.583 10.424 A 3.773 3.773 0 0 1 2.279 10.436 L 0 10.436 L 0 0.123 L 2.232 0.123 A 3.927 3.927 0 0 1 2.798 0.161 Q 3.494 0.263 3.847 0.638 A 1.209 1.209 0 0 1 3.867 0.659 Q 4.311 1.155 4.35 2.269 A 6.221 6.221 0 0 1 4.354 2.455 Z M 44.736 10.436 L 43.172 10.436 L 43.172 1.483 L 41.965 1.483 L 41.965 0.123 L 45.896 0.123 L 45.896 1.483 L 44.736 1.483 L 44.736 10.436 Z M 55.371 10.436 L 51.814 10.436 L 51.814 0.123 L 53.385 0.123 L 53.385 9.1 L 55.371 9.1 L 55.371 10.436 Z M 1.57 5.473 L 1.57 9.217 L 2.127 9.217 A 1.059 1.059 0 0 0 2.374 9.19 A 0.617 0.617 0 0 0 2.783 8.895 Q 2.927 8.647 2.961 8.097 A 5.928 5.928 0 0 0 2.971 7.74 L 2.971 6.908 A 6.44 6.44 0 0 0 2.961 6.544 Q 2.933 6.042 2.818 5.798 A 0.531 0.531 0 0 0 2.437 5.494 A 0.906 0.906 0 0 0 2.232 5.473 L 1.57 5.473 Z M 1.57 1.354 L 1.57 4.295 L 2.15 4.295 A 0.98 0.98 0 0 0 2.335 4.279 Q 2.437 4.259 2.513 4.216 A 0.407 0.407 0 0 0 2.681 4.037 A 0.789 0.789 0 0 0 2.734 3.88 Q 2.8 3.614 2.806 3.092 A 9.484 9.484 0 0 0 2.807 2.977 L 2.807 2.356 A 3.594 3.594 0 0 0 2.796 2.097 Q 2.775 1.852 2.719 1.7 A 0.532 0.532 0 0 0 2.643 1.556 Q 2.484 1.354 2.098 1.354 L 1.57 1.354 Z" vector-effect="non-scaling-stroke"/></g></svg>